# ProBuilder 5.0.3
# https://unity3d.com/unity/features/worldbuilding/probuilder
# 25/04/2021 18:48:48

mtllib ./ModernTurret.mtl
o ModernTurret

g Cube (1)
v -0.1886358 0.3629799 1.296664
v 0.2908986 0.3629799 1.296664
v -0.1886358 0.4230232 1.296664
v 0.2908986 0.4230232 1.296664
v 0.2908986 0.3629875 1.577639
v 0.2908986 0.5355186 1.577639
v -0.1886358 0.3629875 1.577639
v -0.1886358 0.5355186 1.577639

vt 0 -1.525879E-05
vt -0.4795344 -1.525879E-05
vt 0 0.06002808
vt -0.4795344 0.06002808
vt 0.2809448 -1.525879E-05
vt 0.2809448 0.06002808
vt -3.051758E-05 0.1725235
vt 0.4795344 -7.629395E-06
vt 0.4795344 0.1725235
vt -0.2809448 -1.525879E-05
vt -0.2809448 0.06002808
vt 0 0.2385051
vt 0.4795344 0.2385051
vt 0 -0.06415369
vt 0.4795344 -0.06415369
vt 0 0.2809448
vt -0.4795344 0.2809448

vn 0 0 -1
vn 1 0 0
vn 0 0 1
vn -1 0 0
vn 0 0.9283567 -0.3716905
vn 0 -1 2.715325E-05

usemtl Glow
f 3/3/1 4/4/1 2/2/1 1/1/1
f 4/6/2 6/7/2 5/1/2 2/5/2
f 6/9/3 8/7/3 7/1/3 5/8/3
f 8/7/4 3/11/4 1/10/4 7/1/4
f 8/14/5 6/15/5 4/13/5 3/12/5
f 1/16/6 2/17/6 5/2/6 7/1/6

g Cube (7)
v -0.5711938 -0.5923538 7.819989
v 0.6716018 -0.5923538 7.819989
v -0.2728843 -0.2004504 7.819989
v 0.3732924 -0.2004504 7.819989
v 0.6716018 -0.5923538 9.249995
v 0.3732924 -0.2004504 9.249995
v -0.5711938 -0.5923538 9.249995
v -0.2728843 -0.2004504 9.249995

vt 1.525879E-05 -6.281971
vt -41.66127 -6.281971
vt -9.999985 1
vt -31.66127 1
vt 37.37611 36.93201
vt 37.37611 0
vt 25.00569 36.93201
vt 25.00569 0
vt 41.66127 -6.281971
vt 31.66127 1
vt 9.999985 1
vt -3.697959 0
vt -3.697959 36.93201
vt 8.672453 0
vt 8.672453 36.93201
vt 9.999985 36.93201
vt 31.66127 36.93201
vt 9.999985 0
vt 31.66127 0
vt 1.525879E-05 0
vt -41.66127 0
vt 1.525879E-05 36.93201
vt -41.66127 36.93201

vn 0 0 -1
vn 0.7957093 0.6056788 0
vn 0 0 1
vn -0.7957093 0.6056788 0
vn 0 1 0
vn 0 -1 0

usemtl back
f 11/20/7 12/21/7 10/19/7 9/18/7
f 12/24/8 14/25/8 13/23/8 10/22/8
f 14/27/9 16/28/9 15/18/9 13/26/9
f 16/31/10 11/32/10 9/30/10 15/29/10
f 16/35/11 14/36/11 12/34/11 11/33/11
f 9/39/12 10/40/12 13/38/12 15/37/12

g Cube (8)
v -0.151421 -0.4672844 8.840752
v 0.2982166 -0.4672844 8.840752
v -0.04349405 -0.3254957 8.840752
v 0.1902897 -0.3254957 8.840752
v 0.2982166 -0.4672844 9.35812
v 0.1902897 -0.3254957 9.35812
v -0.151421 -0.4672844 9.35812
v -0.04349405 -0.3254957 9.35812

vt 1.525879E-05 -6.281971
vt -41.66127 -6.281971
vt -9.999985 1
vt -31.66127 1
vt 37.37611 36.93201
vt 37.37611 0
vt 25.00569 36.93201
vt 25.00569 0
vt 41.66127 -6.281971
vt 31.66127 1
vt 9.999985 1
vt -3.697959 0
vt -3.697959 36.93201
vt 8.672453 0
vt 8.672453 36.93201
vt 9.999985 36.93201
vt 31.66127 36.93201
vt 9.999985 0
vt 31.66127 0
vt 1.525879E-05 0
vt -41.66127 0
vt 1.525879E-05 36.93201
vt -41.66127 36.93201

vn 0 0 -1
vn 0.7957091 0.6056791 0
vn 0 0 1
vn -0.7957091 0.6056791 0
vn 0 1 0
vn 0 -1 0

usemtl Black
f 19/43/13 20/44/13 18/42/13 17/41/13
f 20/47/14 22/48/14 21/46/14 18/45/14
f 22/50/15 24/51/15 23/41/15 21/49/15
f 24/54/16 19/55/16 17/53/16 23/52/16
f 24/58/17 22/59/17 20/57/17 19/56/17
f 17/62/18 18/63/18 21/61/18 23/60/18

g Cube (2)
v -1.449637 -0.5639442 -2.892445
v 1.522278 -0.5639442 -2.892445
v -0.7362852 0.3732198 -2.892445
v 0.8089265 0.3732198 -2.892445
v 1.522278 -0.5639442 1.860577
v 0.8089265 0.3732198 2.375363
v -1.449637 -0.5639442 1.860577
v -0.7362852 0.3732198 2.375363

vt 1.525879E-05 -6.281971
vt -41.66127 -6.281971
vt -9.999985 1
vt -31.66127 1
vt 37.37611 36.93201
vt 37.37611 0
vt 25.00569 36.93201
vt 25.00569 -4
vt 41.66127 -5.505985
vt -1.525879E-05 -5.505985
vt 31.66127 2.80227
vt 9.999985 2.80227
vt -3.697959 0
vt -3.697959 36.93201
vt 8.672453 -4
vt 8.672453 36.93201
vt 9.999985 36.93201
vt 31.66127 36.93201
vt 9.999985 -4
vt 31.66127 -4
vt 1.525879E-05 0
vt -41.66127 0
vt 1.525879E-05 36.93201
vt -41.66127 36.93201

vn 0 0 -1
vn 0.7957092 0.6056789 0
vn 0 -0.4814489 0.8764741
vn -0.7957091 0.605679 0
vn 0 1 0
vn 0 -1 0

usemtl back
f 27/66/19 28/67/19 26/65/19 25/64/19
f 28/70/20 30/71/20 29/69/20 26/68/20
f 30/74/21 32/75/21 31/73/21 29/72/21
f 32/78/22 27/79/22 25/77/22 31/76/22
f 32/82/23 30/83/23 28/81/23 27/80/23
f 25/86/24 26/87/24 29/85/24 31/84/24

g Cube (1)
v -0.9706366 -0.5468636 0.9943405
v 1.039626 -0.5468636 0.9943405
v -0.4881113 0.08705282 0.9943405
v 0.5571008 0.08705282 0.9943405
v 1.039626 -0.5468636 4.209379
v 0.5571009 0.08705282 4.724165
v -0.9706366 -0.5468636 4.209379
v -0.4881111 0.08705282 4.724165

vt 1.525879E-05 -6.281971
vt -41.66127 -6.281971
vt -9.999985 1
vt -31.66127 1
vt 37.37611 36.93201
vt 37.37611 0
vt 25.00569 36.93201
vt 25.00569 -5.913487
vt 41.66127 -4.876546
vt -1.525879E-05 -4.876546
vt 31.66127 4.504096
vt 9.999986 4.504096
vt -3.697959 0
vt -3.697959 36.93201
vt 8.672454 -5.913487
vt 8.672454 36.93201
vt 9.999985 36.93201
vt 31.66127 36.93201
vt 9.999986 -5.913487
vt 31.66127 -5.913487
vt 1.525879E-05 0
vt -41.66127 0
vt 1.525879E-05 36.93201
vt -41.66127 36.93201

vn 0 0 -1
vn 0.7957091 0.6056789 0
vn 0 -0.6303928 0.7762763
vn -0.7957091 0.605679 0
vn 0 1 0
vn 0 -1 0

usemtl back
f 35/90/25 36/91/25 34/89/25 33/88/25
f 36/94/26 38/95/26 37/93/26 34/92/26
f 38/98/27 40/99/27 39/97/27 37/96/27
f 40/102/28 35/103/28 33/101/28 39/100/28
f 40/106/29 38/107/29 36/105/29 35/104/29
f 33/110/30 34/111/30 37/109/30 39/108/30

g Canon
v -0.3706361 -0.5312406 3.070621
v 0.484636 -0.5312406 3.070621
v -0.1653443 -0.2615389 3.070621
v 0.2793442 -0.2615389 3.070621
v 0.484636 -0.5312406 8.763378
v 0.2793442 -0.2615389 8.763378
v -0.3706361 -0.5312406 8.763378
v -0.1653443 -0.2615389 8.763378

vt 1.525879E-05 -6.281971
vt -41.66127 -6.281971
vt -9.999985 1
vt -31.66127 1
vt 37.37611 36.93201
vt 37.37611 0
vt 25.00569 36.93201
vt 25.00569 0
vt 41.66127 -6.281971
vt 31.66127 1
vt 9.999985 1
vt -3.697959 0
vt -3.697959 36.93201
vt 8.672453 0
vt 8.672453 36.93201
vt 9.999985 36.93201
vt 31.66127 36.93201
vt 9.999985 0
vt 31.66127 0
vt 1.525879E-05 0
vt -41.66127 0
vt 1.525879E-05 36.93201
vt -41.66127 36.93201

vn 0 0 -1
vn 0.7957093 0.6056789 0
vn 0 0 1
vn -0.7957093 0.6056787 0
vn 0 1 0
vn 0 -1 0

usemtl Black
f 43/114/31 44/115/31 42/113/31 41/112/31
f 44/118/32 46/119/32 45/117/32 42/116/32
f 46/121/33 48/122/33 47/112/33 45/120/33
f 48/125/34 43/126/34 41/124/34 47/123/34
f 48/129/35 46/130/35 44/128/35 43/127/35
f 41/133/36 42/134/36 45/132/36 47/131/36

g base
v 0.3879885 -1.222617 -1.189891
v -0.3564084 -1.222617 -1.189891
v 0.2629066 -1.501995 -0.5881271
v -0.2313265 -1.501995 -0.5881271
v -0.3564084 -1.222617 2.688226
v -0.2313265 -1.501995 2.086462
v 0.3879885 -1.222617 2.688226
v 0.2629066 -1.501995 2.086462

vt -18.45889 10.02353
vt -0.6050615 10.02353
vt -15.45889 1.203403
vt -3.605062 1.203403
vt 11.05111 0.3801926
vt -40.50552 0.3801926
vt 3.051111 5.154574
vt -32.50552 5.154574
vt -0.6050615 -36.73915
vt -18.45889 -36.73915
vt -3.605062 -27.91902
vt -15.45889 -27.91902
vt 40.50552 -11.59871
vt -11.05111 -11.59871
vt 32.50552 -6.824327
vt -3.051111 -6.824327
vt -15.45889 3.051111
vt -3.605062 3.051111
vt -15.45889 -32.50552
vt -3.605062 -32.50552
vt 18.45889 -40.50552
vt 0.6050615 -40.50552
vt 18.45889 11.05111
vt 0.6050615 11.05111

vn 0 -0.9070159 -0.4210963
vn -0.9127003 -0.4086296 0
vn 0 -0.907016 0.4210962
vn 0.9127003 -0.4086296 0
vn 0 -1 0
vn 0 1 0

usemtl Black
f 51/137/37 52/138/37 50/136/37 49/135/37
f 52/141/38 54/142/38 53/140/38 50/139/38
f 54/145/39 56/146/39 55/144/39 53/143/39
f 56/149/40 51/150/40 49/148/40 55/147/40
f 56/153/41 54/154/41 52/152/41 51/151/41
f 49/157/42 50/158/42 53/156/42 55/155/42

g Cube (4)
v 0.6561318 -0.5639443 -2.57131
v -0.6174737 -0.5639443 -2.57131
v 0.4421263 -1.243505 -1.541738
v -0.4034682 -1.243505 -1.541738
v -0.6174737 -0.5639443 4.063849
v -0.4034682 -1.243505 3.034277
v 0.6561318 -0.5639443 4.063849
v 0.4421263 -1.243505 3.034277

vt -18.45889 9.223186
vt -0.6050615 9.223186
vt -15.45889 -0.3623209
vt -3.605062 -0.3623209
vt 11.05111 0.2988918
vt -40.50552 0.2988918
vt 3.051111 6.371941
vt -32.50552 6.371941
vt -0.6050615 -33.80564
vt -18.45889 -33.80564
vt -3.605062 -24.22013
vt -15.45889 -24.22013
vt 40.50552 -9.118427
vt -11.05111 -9.118427
vt 32.50552 -3.045378
vt -3.051111 -3.045378
vt -15.45889 3.051111
vt -3.605062 3.051111
vt -15.45889 -32.50552
vt -3.605062 -32.50552
vt 18.45889 -40.50552
vt 0.6050615 -40.50552
vt 18.45889 11.05111
vt 0.6050615 11.05111

vn 0 -0.8345935 -0.5508662
vn -0.9538212 -0.300375 0
vn 0 -0.8345934 0.5508664
vn 0.9538212 -0.300375 0
vn 0 -1 0
vn 0 1 0

usemtl Black
f 59/161/43 60/162/43 58/160/43 57/159/43
f 60/165/44 62/166/44 61/164/44 58/163/44
f 62/169/45 64/170/45 63/168/45 61/167/45
f 64/173/46 59/174/46 57/172/46 63/171/46
f 64/177/47 62/178/47 60/176/47 59/175/47
f 57/181/48 58/182/48 61/180/48 63/179/48

